<?xml version="1.0" encoding="UTF-8" standalone="no"?>
<!-- Created with Inkscape (http://www.inkscape.org/) -->

<svg
   width="36mm"
   height="35mm"
   viewBox="0 0 36 35"
   version="1.1"
   id="svg5"
   inkscape:version="1.1.2 (0a00cf5339, 2022-02-04)"
   sodipodi:docname="organisacion.svg"
   xmlns:inkscape="http://www.inkscape.org/namespaces/inkscape"
   xmlns:sodipodi="http://sodipodi.sourceforge.net/DTD/sodipodi-0.dtd"
   xmlns="http://www.w3.org/2000/svg"
   xmlns:svg="http://www.w3.org/2000/svg">
  <sodipodi:namedview
     id="namedview7"
     pagecolor="#ffffff"
     bordercolor="#666666"
     borderopacity="1.0"
     inkscape:pageshadow="2"
     inkscape:pageopacity="0.0"
     inkscape:pagecheckerboard="0"
     inkscape:document-units="mm"
     showgrid="false"
     inkscape:zoom="0.69130191"
     inkscape:cx="-60.031658"
     inkscape:cy="561.25984"
     inkscape:window-width="1920"
     inkscape:window-height="1011"
     inkscape:window-x="0"
     inkscape:window-y="0"
     inkscape:window-maximized="1"
     inkscape:current-layer="text2739" />
  <defs
     id="defs2" />
  <g
     inkscape:label="Layer 1"
     inkscape:groupmode="layer"
     id="layer1">
    <g
       aria-label="LOGO!"
       id="text2739"
       style="font-size:10.5833px;line-height:1.25;stroke-width:0.264583">
      <path
         d="m 3.0824219,3.7308098 h 1.043861 V 10.56758 h 3.756865 v 0.8785 h -4.800726 z"
         id="path6887" />
      <path
         d="m 11.73303,4.4387798 q -1.136878,0 -1.8086701,0.84749 -0.666624,0.84749 -0.666624,2.30993 0,1.45727 0.666624,2.30476 0.6717921,0.8474902 1.8086701,0.8474902 1.136877,0 1.798334,-0.8474902 0.666624,-0.84749 0.666624,-2.30476 0,-1.46244 -0.666624,-2.30993 -0.661457,-0.84749 -1.798334,-0.84749 z m 0,-0.84749 q 1.622634,0 2.594148,1.09037 0.971514,1.0852 0.971514,2.91454 0,1.82417 -0.971514,2.9145402 -0.971514,1.0852 -2.594148,1.0852 -1.627803,0 -2.6044841,-1.0852 -0.971514,-1.0852002 -0.971514,-2.9145402 0,-1.82934 0.971514,-2.91454 0.9766811,-1.09037 2.6044841,-1.09037 z"
         id="path6889" />
      <path
         d="M 22.192306,10.34538 V 8.2731598 h -1.705317 v -0.85783 h 2.738842 V 10.72778 q -0.604612,0.42891 -1.333248,0.65112 -0.728635,0.21704 -1.555455,0.21704 -1.80867,0 -2.83186,-1.0542 -1.018022,-1.0593602 -1.018022,-2.9455402 0,-1.89135 1.018022,-2.94555 1.02319,-1.05936 2.83186,-1.05936 0.754473,0 1.431432,0.18603 0.682127,0.18604 1.255734,0.54777 v 1.11104 q -0.578774,-0.49092 -1.229895,-0.73897 -0.651121,-0.24805 -1.369422,-0.24805 -1.415929,0 -2.129062,0.79065 -0.707965,0.79065 -0.707965,2.35644 0,1.56062 0.707965,2.35127 0.713133,0.7906402 2.129062,0.7906402 0.552937,0 0.987017,-0.093 0.434081,-0.0982 0.780312,-0.29972 z"
         id="path6891" />
      <path
         d="m 28.264269,4.4387798 q -1.136878,0 -1.80867,0.84749 -0.666624,0.84749 -0.666624,2.30993 0,1.45727 0.666624,2.30476 0.671792,0.8474902 1.80867,0.8474902 1.136877,0 1.798334,-0.8474902 0.666624,-0.84749 0.666624,-2.30476 0,-1.46244 -0.666624,-2.30993 -0.661457,-0.84749 -1.798334,-0.84749 z m 0,-0.84749 q 1.622634,0 2.594148,1.09037 0.971514,1.0852 0.971514,2.91454 0,1.82417 -0.971514,2.9145402 -0.971514,1.0852 -2.594148,1.0852 -1.627803,0 -2.604484,-1.0852 -0.971514,-1.0852002 -0.971514,-2.9145402 0,-1.82934 0.971514,-2.91454 0.976681,-1.09037 2.604484,-1.09037 z"
         id="path6893" />
      <path
         d="m 34.021004,10.1335 h 1.049028 v 1.31258 h -1.049028 z m 0,-6.4026902 h 1.049028 v 3.3848 l -0.103352,1.84484 h -0.837156 l -0.10852,-1.84484 z"
         id="path6895" />
      <path
         id="path10257"
         style="fill:#ff0000;fill-rule:evenodd;stroke-width:0.0700042"
         d="m 33.115285,26.505684 a 9.9315958,5.646791 0 0 1 -9.931596,5.646791 9.9315958,5.646791 0 0 1 -9.931596,-5.646791 9.9315958,5.646791 0 0 1 9.931596,-5.646791 9.9315958,5.646791 0 0 1 9.931596,5.646791 z" />
      <path
         id="rect10281"
         style="opacity:1;vector-effect:none;fill-rule:evenodd;stop-color:#000000;stop-opacity:1"
         d="M 3.082422,11.44608 H 15.313763 V 30.455596 H 3.082422 Z" />
    </g>
  </g>
</svg>
